<svg xmlns="http://www.w3.org/2000/svg" viewBox="0 0 1024 1024"><defs><linearGradient id="bg" x1="0%" x2="100%" y1="0%" y2="100%"><stop offset="0%" style="stop-color:#1a0f30"/><stop offset="100%" style="stop-color:#0d0818"/></linearGradient><linearGradient id="glow" x1="0%" x2="100%" y1="0%" y2="100%"><stop offset="0%" style="stop-color:#c4b5fd"/><stop offset="50%" style="stop-color:#a78bfa"/><stop offset="100%" style="stop-color:#7c5cbf"/></linearGradient></defs><rect width="1024" height="1024" fill="url(#bg)" rx="220" ry="220"/><circle cx="512" cy="460" r="340" fill="none" stroke="#a78bfa" stroke-width="10" opacity=".5"/><line x1="512" x2="360" y1="460" y2="330" stroke="#a78bfa" stroke-linecap="round" stroke-width="7" opacity=".6"/><line x1="512" x2="664" y1="460" y2="330" stroke="#a78bfa" stroke-linecap="round" stroke-width="7" opacity=".6"/><line x1="512" x2="316" y1="460" y2="560" stroke="#a78bfa" stroke-linecap="round" stroke-width="7" opacity=".6"/><line x1="512" x2="708" y1="460" y2="560" stroke="#a78bfa" stroke-linecap="round" stroke-width="7" opacity=".6"/><line x1="512" x2="512" y1="460" y2="200" stroke="#a78bfa" stroke-linecap="round" stroke-width="7" opacity=".6"/><line x1="512" x2="512" y1="460" y2="690" stroke="#a78bfa" stroke-linecap="round" stroke-width="7" opacity=".6"/><circle cx="360" cy="330" r="32" fill="#7c5cbf"/><circle cx="664" cy="330" r="32" fill="#7c5cbf"/><circle cx="316" cy="560" r="32" fill="#7c5cbf"/><circle cx="708" cy="560" r="32" fill="#7c5cbf"/><circle cx="512" cy="200" r="32" fill="#7c5cbf"/><circle cx="512" cy="690" r="32" fill="#7c5cbf"/><circle cx="512" cy="460" r="52" fill="#a78bfa"/><circle cx="512" cy="460" r="26" fill="#e9d5ff" opacity=".9"/><text x="512" y="860" fill="url(#glow)" font-family="sans-serif" font-size="120" font-weight="700" letter-spacing="16" text-anchor="middle">SAGE</text><text x="512" y="920" fill="#a78bfa" font-family="sans-serif" font-size="44" font-weight="400" letter-spacing="6" opacity=".6" text-anchor="middle">AI MEMORY</text></svg>